<svg id="Layer_1" data-name="Layer 1" xmlns="http://www.w3.org/2000/svg" viewBox="0 0 200 200"><defs><style>.cls-1{fill:#a8a8a8;}.cls-2{fill:#606060;}</style></defs><title>Icon-Vasi</title><path class="cls-1" d="M100,23.08a76.94,76.94,0,0,1,29.94,147.8A76.94,76.94,0,0,1,70.06,29.12a76.42,76.42,0,0,1,29.94-6M100,5a95,95,0,1,0,95,95A95,95,0,0,0,100,5Z"/><circle class="cls-1" cx="100" cy="100" r="8.3"/><path class="cls-2" d="M136.67,144.5s20.39,5.31,24.74,11.14a13.15,13.15,0,1,1-21.08,15.74C136,165.56,136.67,144.5,136.67,144.5Z"/></svg>